<?xml version="1.0" standalone="no"?>
<!DOCTYPE svg PUBLIC "-//W3C//DTD SVG 20010904//EN"
 "http://www.w3.org/TR/2001/REC-SVG-20010904/DTD/svg10.dtd">
<svg version="1.0" xmlns="http://www.w3.org/2000/svg"
 width="1000.000000pt" height="1000.000000pt" viewBox="0 0 1000.000000 1000.000000"
 preserveAspectRatio="xMidYMid meet">
<metadata>
Created by potrace 1.14, written by Peter Selinger 2001-2017
</metadata>
<g transform="translate(0.000000,1000.000000) scale(0.100000,-0.100000)"
fill="#000000" stroke="none">
<path d="M5743 6266 l0 -2656 764 -2 c757 -3 764 -3 768 17 2 11 3 60 2 108
-1 49 1 91 5 93 3 2 3 17 -1 32 -4 15 -6 56 -4 92 4 83 4 52 1 298 -2 118 0
216 4 218 3 2 3 17 -1 32 -4 15 -6 56 -4 92 4 79 3 58 2 220 0 74 0 149 0 165
0 17 1 58 1 93 0 34 0 68 0 75 0 6 -1 48 -2 93 -1 44 2 86 6 92 4 7 3 12 -1
12 -5 0 -7 26 -6 58 2 31 3 62 3 67 0 6 0 73 -1 150 0 77 0 145 0 150 1 6 135
10 379 11 207 0 429 4 492 9 63 4 127 8 143 9 15 1 27 3 27 6 0 3 14 5 31 4
18 0 53 3 78 8 25 5 62 11 81 13 19 2 46 6 60 9 14 2 43 7 65 11 22 4 67 13
100 22 33 8 67 16 75 17 8 2 22 6 30 9 8 3 60 19 115 37 55 17 104 36 110 41
5 5 15 9 22 9 8 0 45 16 83 34 39 19 70 33 70 30 0 -3 6 0 13 6 6 6 53 36 104
68 131 82 226 165 318 275 22 27 45 54 51 60 18 21 91 150 122 217 52 114 104
292 117 405 17 154 24 330 13 363 -5 13 -3 22 3 22 6 0 8 3 6 8 -3 4 -8 41
-11 82 -4 41 -8 82 -10 90 -1 8 -6 38 -10 65 -11 71 -44 200 -68 270 -27 74
-116 253 -140 279 -10 11 -18 24 -18 28 0 19 -218 248 -237 248 -6 0 -13 3
-15 8 -4 9 -85 72 -93 72 -4 0 -19 9 -34 19 -25 18 -122 69 -201 104 -100 46
-378 123 -505 141 -22 3 -49 7 -61 10 -11 2 -53 7 -93 11 -40 3 -82 9 -94 13
-12 3 -614 7 -1338 9 l-1317 4 1 -2655z m2067 2150 c116 -24 258 -75 268 -98
2 -5 9 -8 15 -8 32 -1 150 -117 208 -205 72 -109 136 -292 153 -435 3 -25 8
-65 11 -90 13 -96 8 -350 -10 -490 -42 -330 -169 -572 -369 -705 -54 -36 -150
-78 -203 -89 -122 -27 -138 -28 -371 -30 -132 -1 -226 2 -229 8 -9 14 -9 635
-1 629 5 -2 4 6 0 19 -4 13 -7 48 -5 78 4 68 4 59 1 156 -1 44 2 86 6 92 4 7
3 12 -1 12 -5 0 -7 26 -6 58 4 71 4 62 1 154 -2 42 0 74 4 71 5 -2 4 6 0 19
-4 13 -7 48 -5 78 4 68 4 59 1 156 -1 44 2 86 6 92 4 7 3 12 -1 12 -5 0 -7 26
-6 58 4 68 4 40 2 247 0 94 -1 183 0 198 l1 29 248 -5 c136 -2 263 -8 282 -11z"/>
<path d="M30 6215 c0 -2522 1 -2655 18 -2656 20 0 423 0 467 1 l30 0 0 78 c-1
42 0 80 2 84 4 8 105 -32 114 -45 3 -5 9 -8 13 -8 11 1 103 -36 226 -92 40
-17 139 -61 237 -103 18 -8 35 -14 38 -14 3 1 18 -6 33 -14 15 -9 70 -34 122
-57 52 -22 111 -48 130 -56 19 -9 40 -17 45 -19 6 -1 62 -26 125 -54 63 -28
129 -57 145 -65 17 -7 95 -41 175 -75 136 -59 167 -72 273 -119 23 -10 76 -33
117 -51 41 -18 93 -40 115 -50 22 -10 94 -42 160 -70 434 -189 514 -223 550
-239 93 -42 112 -50 139 -61 16 -6 25 -14 20 -19 -5 -4 -117 -54 -249 -111
-132 -56 -260 -111 -284 -122 -103 -46 -367 -160 -376 -162 -5 -1 -41 -17 -79
-34 -38 -18 -70 -32 -71 -32 -1 0 -20 -8 -41 -17 -22 -9 -41 -17 -44 -18 -3 0
-9 -3 -15 -6 -5 -4 -71 -33 -145 -64 -74 -32 -153 -66 -175 -76 -35 -16 -138
-60 -410 -176 -44 -18 -93 -40 -110 -48 -16 -7 -100 -43 -185 -80 -85 -37
-170 -73 -187 -81 -18 -8 -48 -20 -65 -28 -30 -13 -107 -45 -228 -98 -25 -10
-54 -23 -65 -28 -43 -19 -118 -52 -300 -130 -105 -45 -208 -91 -230 -101 l-40
-20 35 7 c19 4 46 8 60 10 39 4 112 14 145 20 30 5 53 9 135 19 25 3 72 10
105 16 33 5 80 12 105 15 25 2 56 7 70 9 14 3 48 8 75 11 53 7 80 12 80 14 0
1 43 6 130 15 22 2 40 4 40 5 0 2 35 8 80 14 36 5 71 10 145 21 14 2 48 6 75
10 28 3 61 8 75 11 14 2 45 7 70 10 69 9 90 12 160 23 36 5 81 12 100 15 105
14 198 28 220 32 14 3 45 7 70 10 25 2 56 6 70 9 14 2 45 7 70 10 25 4 54 9
65 11 11 3 45 7 75 10 68 8 95 12 95 14 0 1 15 3 34 5 35 4 86 11 131 19 14 2
66 10 115 16 50 7 99 14 110 16 21 5 77 12 135 19 19 3 53 7 75 11 49 7 79 11
130 19 22 3 51 7 65 10 14 2 48 7 75 10 28 3 61 8 75 10 34 7 89 15 133 20 75
10 103 14 137 20 19 3 51 8 70 10 19 2 51 7 70 10 19 3 51 8 70 10 19 2 64 8
100 14 36 5 85 13 110 16 25 3 59 9 75 12 17 3 48 6 70 8 22 2 51 5 65 9 27 6
31 7 240 36 80 11 154 22 165 24 18 3 66 10 150 21 17 2 44 6 60 9 32 5 102
16 148 22 15 2 45 6 67 9 22 3 52 8 67 10 15 2 44 6 63 9 19 3 52 8 73 11 20
3 54 7 75 10 20 3 51 7 67 10 17 2 47 7 68 10 20 3 54 8 75 11 20 3 51 7 67 9
17 2 44 6 60 9 17 3 53 8 80 12 28 3 59 8 70 10 11 2 40 7 65 10 25 3 59 7 75
9 17 2 44 6 60 8 17 3 52 8 78 12 27 4 58 8 70 11 11 2 57 8 101 14 109 15
145 20 181 27 17 3 46 7 65 9 33 3 90 12 134 20 10 2 44 6 75 10 31 3 65 8 76
10 11 3 36 6 55 9 19 3 51 7 70 10 19 3 55 8 80 11 25 3 56 7 70 9 14 3 57 9
95 15 39 6 88 14 110 16 56 7 83 11 135 19 25 4 56 8 70 9 14 2 39 6 55 9 17
3 53 9 80 12 28 3 75 10 105 15 57 9 137 20 180 25 14 1 39 5 55 8 17 4 50 9
75 12 90 12 115 16 140 20 14 2 45 7 70 10 25 3 56 8 70 10 14 2 45 7 70 10
25 3 56 8 70 10 14 2 45 7 70 10 46 6 60 8 140 20 56 8 78 12 160 24 77 12
137 20 182 26 18 2 51 7 73 11 22 4 56 8 75 9 19 2 42 6 51 9 9 4 20 6 25 5 8
-3 70 6 123 16 10 2 42 6 71 10 29 4 60 8 69 10 30 6 116 17 151 21 19 1 35 3
35 4 0 2 26 7 90 15 33 5 69 10 80 11 11 2 40 6 64 9 50 6 66 15 30 16 -13 0
-33 2 -44 4 -19 4 -76 12 -140 21 -16 3 -46 7 -65 10 -19 3 -48 6 -65 8 -16 2
-43 7 -60 9 -16 3 -52 9 -80 13 -27 3 -59 8 -70 10 -11 3 -42 7 -70 10 -27 2
-72 9 -100 14 -27 5 -68 12 -90 14 -22 3 -40 5 -40 6 0 1 -13 3 -30 4 -16 2
-52 7 -80 11 -27 4 -60 9 -73 10 -12 2 -53 8 -90 14 -80 12 -133 20 -187 26
-22 3 -65 10 -95 15 -30 5 -77 12 -105 15 -27 3 -63 9 -80 12 -16 3 -41 7 -55
8 -33 4 -119 16 -145 21 -11 2 -40 7 -65 10 -25 3 -56 7 -70 10 -14 2 -45 7
-70 9 -25 3 -56 8 -70 10 -30 6 -60 10 -165 25 -44 6 -91 13 -105 16 -14 2
-47 7 -75 10 -51 6 -72 9 -115 18 -14 3 -46 8 -73 10 -26 3 -62 8 -80 11 -38
7 -99 15 -147 20 -19 2 -36 4 -37 5 -5 4 -16 6 -83 15 -36 4 -74 9 -85 11 -11
1 -20 3 -20 4 0 1 -18 3 -40 5 -21 3 -55 7 -75 10 -19 3 -51 8 -70 11 -19 3
-46 7 -60 9 -14 2 -50 7 -80 10 -30 4 -57 8 -60 10 -3 2 -37 7 -75 10 -39 4
-73 9 -76 11 -8 4 -62 13 -116 19 -21 2 -54 6 -73 9 -19 4 -53 8 -75 11 -22 3
-47 7 -55 9 -8 3 -42 7 -75 11 -33 3 -69 8 -80 11 -19 4 -39 7 -132 19 -21 3
-51 7 -68 10 -16 2 -48 7 -70 10 -22 3 -56 8 -75 11 -19 2 -62 9 -95 14 -33 5
-80 12 -105 15 -45 6 -74 11 -127 20 -16 2 -48 7 -72 10 -23 3 -55 7 -70 9
-22 4 -105 16 -211 31 -14 2 -45 7 -70 11 -25 4 -56 8 -70 9 -14 2 -43 6 -65
10 -95 14 -112 17 -150 21 -21 2 -51 7 -65 10 -14 3 -40 7 -59 9 -37 5 -232
33 -272 40 -13 2 -44 6 -69 9 -25 3 -60 8 -77 11 -18 3 -45 7 -60 9 -16 2 -41
7 -58 10 -16 3 -52 8 -80 11 -27 3 -61 7 -75 10 -14 3 -41 7 -60 10 -19 2 -53
7 -75 10 -22 3 -56 8 -75 10 -19 2 -46 6 -60 9 -14 2 -45 7 -70 10 -25 4 -56
8 -70 10 -26 5 -153 23 -205 30 -16 3 -30 5 -30 6 0 1 -17 3 -38 5 -21 2 -53
6 -70 9 -18 3 -48 8 -67 10 -19 3 -96 14 -172 26 -75 11 -155 22 -178 25 -52
7 -63 13 -53 28 4 7 9 19 10 27 3 15 43 161 81 292 10 37 17 70 14 73 -3 3 1
5 8 5 7 0 11 3 8 6 -4 3 3 36 13 72 11 37 22 75 24 85 2 9 6 21 9 25 3 5 7 19
10 33 8 37 13 58 36 139 12 41 23 80 24 85 2 6 9 30 16 55 7 25 14 52 15 60 1
8 5 22 8 30 7 17 55 184 72 248 18 70 48 180 52 192 3 8 8 24 10 35 2 11 8 31
13 45 5 14 11 34 13 45 2 11 6 27 9 35 3 8 10 33 16 55 6 22 17 63 26 90 8 28
22 79 31 115 9 36 19 72 22 80 3 8 7 20 8 25 15 59 37 143 42 155 3 8 7 20 8
25 2 6 24 84 49 175 26 91 50 176 52 189 3 14 7 28 10 33 3 4 7 18 10 30 7 32
8 35 27 103 10 33 24 83 31 110 17 61 31 111 96 340 29 99 53 187 55 195 2 8
17 65 35 125 36 128 38 135 39 154 1 8 4 11 8 8 3 -4 6 -826 6 -1827 0 -1124
4 -1823 10 -1827 5 -3 52 -5 105 -4 54 1 104 2 112 2 23 -1 1138 -2 1201 -1
l56 0 0 2655 0 2655 -787 0 -787 0 -27 -102 c-15 -57 -30 -109 -32 -116 -2 -7
-4 -14 -4 -17 -1 -3 -6 -19 -11 -37 -13 -43 -79 -268 -84 -290 -3 -10 -7 -26
-9 -35 -2 -10 -30 -108 -61 -218 -32 -110 -58 -204 -59 -210 -1 -5 -10 -37
-20 -70 -10 -33 -20 -67 -21 -75 -2 -8 -13 -46 -25 -85 -11 -38 -22 -77 -24
-85 -2 -8 -11 -40 -20 -71 -9 -31 -18 -65 -21 -75 -2 -11 -9 -35 -15 -54 -10
-31 -48 -170 -54 -195 -1 -5 -10 -35 -19 -65 -9 -30 -46 -161 -82 -290 -37
-129 -68 -242 -71 -250 -3 -8 -5 -16 -5 -17 0 -2 -5 -17 -10 -35 -6 -18 -12
-40 -14 -48 -2 -8 -14 -49 -25 -90 -12 -41 -23 -82 -25 -90 -2 -8 -13 -45 -24
-82 -11 -38 -17 -68 -14 -68 3 0 1 -6 -5 -12 -6 -7 -13 -31 -17 -53 -4 -22
-10 -44 -14 -50 -3 -5 -6 -14 -8 -20 -14 -64 -74 -268 -82 -282 -10 -17 -10
-17 -11 0 0 24 -1 29 -12 57 -6 14 -19 54 -28 90 -10 36 -26 90 -35 120 -19
65 -19 65 -44 155 -10 39 -30 108 -44 155 -13 47 -30 108 -37 135 -7 28 -17
56 -23 63 -5 6 -7 12 -4 12 3 0 -2 21 -10 48 -8 26 -16 54 -18 62 -28 104 -37
137 -42 150 -3 8 -7 20 -8 25 -2 6 -8 30 -16 55 -7 25 -14 50 -15 55 -2 6 -10
35 -19 65 -9 30 -18 62 -20 70 -2 8 -8 30 -14 48 -5 17 -7 32 -4 32 3 0 1 6
-4 13 -8 10 -21 45 -27 77 -4 18 -29 108 -33 120 -4 8 -8 24 -10 35 -6 28 -9
38 -16 55 -7 18 -36 120 -41 146 -3 11 -10 33 -16 49 -7 17 -14 41 -16 55 -3
14 -16 62 -30 107 -14 45 -27 90 -29 100 -2 10 -54 191 -115 403 -117 404
-148 513 -155 544 -2 10 -9 34 -15 52 l-12 34 -779 0 -779 0 0 -2655z m541
883 c12 -40 22 -77 24 -83 1 -5 10 -37 20 -70 10 -33 20 -64 21 -70 3 -10 63
-219 71 -245 2 -8 4 -17 5 -20 0 -3 5 -14 10 -25 6 -10 11 -26 12 -35 1 -14 7
-35 58 -200 11 -36 22 -72 23 -80 2 -8 18 -62 35 -120 18 -58 35 -118 40 -135
5 -16 13 -46 20 -65 6 -19 13 -42 15 -50 1 -8 11 -42 21 -75 10 -33 18 -62 19
-65 1 -3 9 -32 20 -65 10 -33 19 -64 21 -70 1 -5 19 -66 39 -135 20 -69 41
-138 45 -155 4 -16 15 -52 25 -80 9 -27 18 -60 21 -73 2 -13 11 -42 19 -66 8
-23 16 -51 18 -62 2 -10 7 -28 11 -39 20 -54 44 -136 50 -170 1 -5 5 -15 8
-21 4 -6 9 -21 11 -35 3 -13 26 -94 52 -179 25 -85 48 -162 50 -170 15 -55 85
-290 95 -315 6 -16 11 -30 10 -30 -1 0 3 -18 9 -40 12 -39 40 -140 45 -160 2
-5 6 -17 9 -25 7 -17 37 -121 37 -128 0 -2 -24 -1 -52 4 -29 4 -63 8 -75 10
-13 1 -42 5 -65 9 -51 8 -77 12 -138 20 -25 3 -57 8 -72 11 -16 2 -40 6 -55 8
-16 2 -59 9 -98 15 -38 6 -86 13 -105 15 -51 7 -106 15 -180 26 -99 15 -154
22 -165 23 -7 0 -10 555 -10 1644 0 904 1 1643 2 1643 1 0 12 -33 24 -72z"/>
</g>
</svg>
