<svg width="42" height="42" viewBox="0 0 42 42" fill="none" xmlns="http://www.w3.org/2000/svg">
<g clip-path="url(#clip0_2211_17)">
<path d="M33.783 31.9565C31.2666 31.9565 29.2178 34.0054 29.2178 36.5217C29.2178 39.0381 31.2666 41.087 33.783 41.087C36.2994 41.087 38.3482 39.0381 38.3482 36.5217C38.3482 34.0053 36.2993 31.9565 33.783 31.9565ZM33.783 39.2609C32.2728 39.2609 31.0438 38.0319 31.0438 36.5217C31.0438 35.0115 32.2728 33.7826 33.783 33.7826C35.2932 33.7826 36.5221 35.0115 36.5221 36.5217C36.5221 38.0319 35.2931 39.2609 33.783 39.2609Z" fill="#282828"/>
<path d="M15.5222 31.9565C13.0059 31.9565 10.957 34.0054 10.957 36.5217C10.957 39.0381 13.0059 41.087 15.5222 41.087C18.0385 41.087 20.0874 39.0381 20.0874 36.5218C20.0874 34.0055 18.0386 31.9565 15.5222 31.9565ZM15.5222 39.2609C14.012 39.2609 12.7831 38.0319 12.7831 36.5217C12.7831 35.0115 14.012 33.7826 15.5222 33.7826C17.0324 33.7826 18.2614 35.0115 18.2614 36.5217C18.2614 38.0319 17.0324 39.2609 15.5222 39.2609Z" fill="#282828"/>
<path d="M37.4348 28.3044H16.3599C14.1923 28.3044 12.3097 26.7614 11.8842 24.634L7.2861 1.64717C7.20024 1.21987 6.82592 0.913086 6.39134 0.913086H0.913073C0.409073 0.913086 0 1.32216 0 1.82616C0 2.33016 0.409073 2.73923 0.913073 2.73923H5.64262L10.0928 24.9938C10.6881 27.9703 13.3249 30.1306 16.3599 30.1306H37.4348C37.9388 30.1306 38.3479 29.7215 38.3479 29.2175C38.3479 28.7135 37.9388 28.3044 37.4348 28.3044Z" fill="#282828"/>
<path d="M41.7722 6.69994C41.5986 6.50452 41.3503 6.39136 41.0874 6.39136H8.21776C7.71376 6.39136 7.30469 6.80043 7.30469 7.30443C7.30469 7.80843 7.71376 8.21742 8.21776 8.21742H40.0538L38.7554 18.6005C38.5838 19.9683 37.415 21 36.0364 21H10.9569C10.4529 21 10.0438 21.4091 10.0438 21.9131C10.0438 22.4171 10.4529 22.8262 10.9569 22.8262H36.0364C38.3336 22.8262 40.2821 21.1078 40.5669 18.827L41.9931 7.41759C42.026 7.15823 41.9457 6.89527 41.7722 6.69994Z" fill="#282828"/>
</g>
<defs>
<clipPath id="clip0_2211_17">
<rect width="42" height="42" fill="white"/>
</clipPath>
</defs>
</svg>
