<svg width="18" height="18" viewBox="0 0 18 18" fill="none" xmlns="http://www.w3.org/2000/svg">
<g clip-path="url(#clip0_167_2725)">
<path d="M14.478 13.6957C13.3996 13.6957 12.5215 14.5738 12.5215 15.6522C12.5215 16.7306 13.3995 17.6087 14.478 17.6087C15.5565 17.6087 16.4345 16.7307 16.4345 15.6522C16.4345 14.5737 15.5564 13.6957 14.478 13.6957ZM14.478 16.8261C13.8308 16.8261 13.3041 16.2994 13.3041 15.6522C13.3041 15.005 13.8308 14.4783 14.478 14.4783C15.1252 14.4783 15.6519 15.005 15.6519 15.6522C15.6519 16.2994 15.1252 16.8261 14.478 16.8261Z" fill="#B9C599" fill-opacity="0.5"/>
<path d="M6.65231 13.6957C5.57389 13.6957 4.6958 14.5738 4.6958 15.6522C4.6958 16.7306 5.57389 17.6087 6.65231 17.6087C7.73074 17.6087 8.60883 16.7307 8.60883 15.6522C8.60883 14.5738 7.73077 13.6957 6.65231 13.6957ZM6.65231 16.8261C6.00508 16.8261 5.4784 16.2994 5.4784 15.6522C5.4784 15.005 6.00508 14.4783 6.65231 14.4783C7.29954 14.4783 7.82623 15.005 7.82623 15.6522C7.82623 16.2994 7.29954 16.8261 6.65231 16.8261Z" fill="#B9C599" fill-opacity="0.5"/>
<path d="M16.0435 12.1304H7.01139C6.08242 12.1304 5.27557 11.4691 5.09321 10.5574L3.12261 0.705906C3.08582 0.522775 2.9254 0.391296 2.73915 0.391296H0.391317C0.175317 0.391296 0 0.566613 0 0.782614C0 0.998614 0.175317 1.17393 0.391317 1.17393H2.41826L4.32547 10.7116C4.58062 11.9872 5.71069 12.9131 7.01139 12.9131H16.0435C16.2595 12.9131 16.4348 12.7378 16.4348 12.5218C16.4348 12.3058 16.2595 12.1304 16.0435 12.1304Z" fill="#B9C599" fill-opacity="0.5"/>
<path d="M17.9021 2.87138C17.8278 2.78763 17.7214 2.73914 17.6087 2.73914H3.52169C3.30569 2.73914 3.13037 2.91445 3.13037 3.13045C3.13037 3.34645 3.30569 3.52173 3.52169 3.52173H17.1657L16.6093 7.97164C16.5357 8.55783 16.0348 8.99999 15.444 8.99999H4.6956C4.4796 8.99999 4.30429 9.17531 4.30429 9.39131C4.30429 9.60731 4.4796 9.78262 4.6956 9.78262H15.444C16.4285 9.78262 17.2635 9.04618 17.3856 8.06871L17.9968 3.17895C18.0109 3.0678 17.9765 2.9551 17.9021 2.87138Z" fill="#B9C599" fill-opacity="0.5"/>
</g>
<defs>
<clipPath id="clip0_167_2725">
<rect width="18" height="18" fill="white"/>
</clipPath>
</defs>
</svg>
