<?xml version="1.0" encoding="UTF-8"?>
<!DOCTYPE svg PUBLIC "-//W3C//DTD SVG 1.1//EN" "http://www.w3.org/Graphics/SVG/1.1/DTD/svg11.dtd">
<!-- Creator: CorelDRAW 2020 (64-Bit) -->
<svg xmlns="http://www.w3.org/2000/svg" xml:space="preserve" width="317px" height="280px" version="1.1" style="shape-rendering:geometricPrecision; text-rendering:geometricPrecision; image-rendering:optimizeQuality; fill-rule:evenodd; clip-rule:evenodd"
viewBox="0 0 7921.93 6989.5"
 xmlns:xlink="http://www.w3.org/1999/xlink"
 xmlns:xodm="http://www.corel.com/coreldraw/odm/2003">
 <defs>
  <style type="text/css">
   <![CDATA[
    .fil0 {fill:#231915;fill-rule:nonzero}
   ]]>
  </style>
 </defs>
 <g id="Слой_x0020_1">
  <metadata id="CorelCorpID_0Corel-Layer"/>
  <path class="fil0" d="M829.59 3756.66l0 -733.79 -456.48 733.79 456.48 0zm6262.95 -733.79l0 733.79 456.45 0 -456.45 -733.79zm-680.48 -1022.91l-5315.97 0 0 1756.7 5729.72 0 0 -1756.7 -413.75 0zm-136.91 -266.68l0 -600.01 -4628.01 0 0 600.01 4628.01 0zm-550.78 -866.51l0 -600 -3526.16 0 0 600 3526.16 0zm266.71 -733.34l0 733.34 417.46 0c73.6,0 133.37,59.75 133.37,133.14l0 733.37 417.26 0c73.6,0 133.37,59.69 133.37,133.37l0 652.25 804.7 1293.93c15.59,21.82 24.69,48.29 24.69,77.11l0 2966.4c0,73.45 -59.72,133.16 -133.4,133.16l-7655.16 0c-73.63,0 -133.37,-59.71 -133.37,-133.16l0 -2966.4c0,-28.82 9.16,-55.29 24.69,-77.11l804.9 -1293.93 0 -652.25c0,-73.68 59.75,-133.37 133.16,-133.37l417.89 0 0 -733.37c0,-73.39 59.74,-133.14 133.16,-133.14l417.91 0 0 -733.34c0,-73.69 59.71,-133.43 133.34,-133.43l3792.63 0c73.68,0 133.4,59.74 133.4,133.43l0 0zm-599.6 4737.16l0 1005.19c0,73.63 -59.71,133.4 -133.37,133.4l-2594.06 0c-73.68,0 -133.4,-59.77 -133.4,-133.4l0 -1005.19c0,-73.68 59.72,-133.4 133.4,-133.4l2594.06 0c73.66,0 133.37,59.72 133.37,133.4l0 0zm-266.71 871.88l0 -738.6 -2327.65 0 0 738.6 2327.65 0zm2530.57 980.56l0 -2699.69 -7388.6 0 0 2699.69 7388.6 0z"/>
 </g>
</svg>
