<svg width="18" height="18" viewBox="0 0 18 18" fill="none" xmlns="http://www.w3.org/2000/svg">
<path d="M12.8962 1.54918C11.3946 1.54115 9.96719 2.2006 8.99998 3.34915C8.03882 2.19275 6.60741 1.53143 5.10377 1.54918C2.28503 1.54918 0 3.8342 0 6.65295C0 11.4834 8.43037 16.1998 8.77215 16.3821C8.91005 16.4742 9.0899 16.4742 9.22785 16.3821C9.56963 16.1998 18 11.5517 18 6.65295C18 3.8342 15.7149 1.54918 12.8962 1.54918ZM8.99998 15.4707C7.67846 14.696 0.911394 10.572 0.911394 6.65295C0.911394 4.33757 2.78839 2.46053 5.10381 2.46053C6.52171 2.4419 7.84863 3.15709 8.61266 4.35165C8.76779 4.56557 9.06701 4.61323 9.28092 4.45807C9.32179 4.42841 9.35772 4.39252 9.38734 4.35165C10.6545 2.41377 13.2527 1.87003 15.1905 3.13716C16.3769 3.91288 17.0909 5.23548 17.0886 6.6529C17.0886 10.6175 10.3215 14.7188 8.99998 15.4707Z" fill="#B9C599" fill-opacity="0.5"/>
</svg>
