<svg width="42" height="36" viewBox="0 0 42 36" fill="none" xmlns="http://www.w3.org/2000/svg">
<path d="M30.0911 0.614827C26.5875 0.596103 23.2568 2.13482 21 4.81478C18.7573 2.1165 15.4173 0.57341 11.9088 0.614827C5.33173 0.614827 0 5.94655 0 12.5236C0 23.7946 19.6709 34.7995 20.4684 35.2249C20.7901 35.4399 21.2098 35.4399 21.5316 35.2249C22.3291 34.7995 42 23.954 42 12.5236C42 5.94655 36.6682 0.614827 30.0911 0.614827ZM21 33.0983C17.9164 31.2907 2.12659 21.668 2.12659 12.5236C2.12659 7.12107 6.50624 2.74131 11.9089 2.74131C15.2173 2.69786 18.3135 4.36662 20.0962 7.15394C20.4582 7.65307 21.1564 7.7643 21.6555 7.40223C21.7508 7.33304 21.8347 7.24929 21.9038 7.15394C24.8604 2.63222 30.9229 1.36348 35.4446 4.32012C38.2127 6.13013 39.8788 9.21621 39.8733 12.5235C39.8734 21.7742 24.0835 31.3439 21 33.0983Z" fill="#282828"/>
</svg>
