<?xml version="1.0" encoding="UTF-8"?>
<!DOCTYPE svg PUBLIC "-//W3C//DTD SVG 1.1//EN" "http://www.w3.org/Graphics/SVG/1.1/DTD/svg11.dtd">
<!-- Creator: CorelDRAW 2020 (64-Bit) -->
<svg xmlns="http://www.w3.org/2000/svg" xml:space="preserve" width="125px" height="98px" version="1.1" style="shape-rendering:geometricPrecision; text-rendering:geometricPrecision; image-rendering:optimizeQuality; fill-rule:evenodd; clip-rule:evenodd"
viewBox="0 0 7.92 6.23"
 xmlns:xlink="http://www.w3.org/1999/xlink"
 xmlns:xodm="http://www.corel.com/coreldraw/odm/2003">
 <defs>
  <style type="text/css">
   <![CDATA[
    .fil0 {fill:#2B2A29;fill-rule:nonzero}
    .fil1 {fill:#B9C599;fill-rule:nonzero}
   ]]>
  </style>
 </defs>
 <g id="Слой_x0020_1">
  <metadata id="CorelCorpID_0Corel-Layer"/>
  <polygon class="fil0" points="3.95,0.04 3.95,4.26 2.77,4.26 2.77,1.33 1.95,4.26 1.27,4.26 0.42,1.38 0.42,4.26 0.01,4.26 0.01,0.04 1.25,0.04 1.98,2.59 2.7,0.04 "/>
  <path class="fil0" d="M4.55 4.22l0 -4.22 1.82 0c1.03,0 1.55,0.41 1.55,1.24 0,0.84 -0.58,1.26 -1.72,1.26l-0.43 0 0 1.72 -1.22 0zm1.22 -2.11l0.28 0c0.44,0 0.67,-0.3 0.67,-0.89 0,-0.55 -0.23,-0.83 -0.67,-0.83l-0.28 0 0 1.72z"/>
  <polygon class="fil1" points="0,6.23 7.91,5.09 0,3.94 2.64,5.09 "/>
 </g>
</svg>
