<?xml version="1.0" encoding="UTF-8"?>
<!DOCTYPE svg PUBLIC "-//W3C//DTD SVG 1.1//EN" "http://www.w3.org/Graphics/SVG/1.1/DTD/svg11.dtd">
<!-- Creator: CorelDRAW 2020 (64-Bit) -->
<svg xmlns="http://www.w3.org/2000/svg" xml:space="preserve" width="256px" height="114px" version="1.1" style="shape-rendering:geometricPrecision; text-rendering:geometricPrecision; image-rendering:optimizeQuality; fill-rule:evenodd; clip-rule:evenodd"
viewBox="0 0 24.5 10.93"
 xmlns:xlink="http://www.w3.org/1999/xlink"
 xmlns:xodm="http://www.corel.com/coreldraw/odm/2003">
 <defs>
  <style type="text/css">
   <![CDATA[
    .str0 {stroke:#B9C599;stroke-width:0.23;stroke-miterlimit:22.9256}
    .fil2 {fill:none}
    .fil0 {fill:#2B2A29;fill-rule:nonzero}
    .fil1 {fill:#B9C599;fill-rule:nonzero}
   ]]>
  </style>
 </defs>
 <g id="Слой_x0020_1">
  <metadata id="CorelCorpID_0Corel-Layer"/>
  <polygon class="fil0" points="5.97,0 5.97,6.39 4.18,6.39 4.18,1.95 2.94,6.39 1.9,6.39 0.62,2.02 0.62,6.39 0,6.39 0,0 1.88,0 2.98,3.86 4.07,0 "/>
  <path class="fil0" d="M6.88 10.93l0 -6.4 2.75 0c1.57,0 2.35,0.63 2.35,1.89 0,1.27 -0.87,1.9 -2.61,1.9l-0.64 0 0 2.61 -1.85 0zm1.85 -3.2l0.42 0c0.67,0 1.01,-0.45 1.01,-1.34 0,-0.84 -0.34,-1.26 -1.01,-1.26l-0.42 0 0 2.6z"/>
  <path class="fil0" d="M8.93 0l1.04 3.73 -1.09 0 -0.22 -0.81 -1.12 0 -0.24 0.81 -0.42 0 1.1 -3.73 0.95 0zm-1.29 2.54l0.92 0 -0.44 -1.64 -0.48 1.64zm3 1.19l0 -3.73 1.61 0c0.41,0 0.75,0.09 0.99,0.26 0.25,0.18 0.38,0.42 0.38,0.71 0,0.45 -0.27,0.75 -0.8,0.89 0.27,0.1 0.45,0.21 0.53,0.33 0.08,0.12 0.14,0.36 0.16,0.71 0.04,0.42 0.11,0.7 0.21,0.83l-1.17 0c-0.07,-0.17 -0.11,-0.39 -0.11,-0.65l-0.01 -0.22 0 -0.28c0,-0.43 -0.18,-0.64 -0.52,-0.64l-0.19 0 0 1.79 -1.08 0zm1.08 -2.1l0.22 0c0.41,0 0.62,-0.21 0.62,-0.64 0,-0.43 -0.21,-0.64 -0.62,-0.64l-0.22 0 0 1.28zm5.7 -1.63l-0.93 1.18 1.38 2.55 -1.21 0 -0.87 -1.63 -0.16 0.17 0 1.46 -1.08 0 0 -3.73 1.08 0 0 1.66 1.29 -1.66 0.5 0zm3.52 0l0 0.37 -1.34 0 0 1.13 1.13 0 0 0.38 -1.13 0 0 1.48 1.57 0 0 0.37 -2.65 0 0 -3.73 2.42 0zm3.56 0l0 0.37 -0.91 0 0 3.36 -1.15 0 0 -3.36 -0.92 0 0 -0.37 2.98 0z"/>
  <path class="fil0" d="M13.39 7.14l0 3.35 1.53 0 0 0.38 -2.61 0 0 -3.73 1.08 0zm3.79 0l1.04 3.73 -1.09 0 -0.22 -0.81 -1.12 0 -0.24 0.81 -0.42 0 1.1 -3.73 0.95 0zm-1.29 2.54l0.92 0 -0.44 -1.65 -0.48 1.65zm5.09 -0.31l0.46 0.12c0.01,0.1 0.01,0.18 0.01,0.25 0,0.36 -0.13,0.65 -0.39,0.86 -0.26,0.22 -0.62,0.33 -1.06,0.33 -1.1,0 -1.66,-0.62 -1.66,-1.87 0,-0.58 0.16,-1.06 0.49,-1.43 0.32,-0.37 0.74,-0.55 1.26,-0.55 0.8,0 1.21,0.39 1.21,1.16l-0.47 0.22c0.01,-0.11 0.01,-0.2 0.01,-0.26 0,-0.55 -0.22,-0.82 -0.66,-0.82 -0.47,0 -0.7,0.58 -0.7,1.75 0,1 0.26,1.5 0.78,1.5 0.22,0 0.4,-0.08 0.54,-0.25 0.14,-0.18 0.22,-0.39 0.22,-0.65 0,-0.08 -0.02,-0.2 -0.04,-0.36zm3.29 -2.23l0 0.37 -1.33 0 0 1.13 1.12 0 0 0.38 -1.12 0 0 1.47 1.56 0 0 0.38 -2.64 0 0 -3.73 2.41 0z"/>
  <polygon class="fil1" points="0,10.93 5.97,9.2 0,7.46 1.99,9.2 "/>
  <line class="fil2 str0" x1="12.31" y1="5.41" x2="23.6" y2= "5.41" />
 </g>
</svg>
