<svg width="18" height="18" viewBox="0 0 18 18" fill="none" xmlns="http://www.w3.org/2000/svg">
<g clip-path="url(#clip0_167_2742)">
<path d="M17.9699 10.9758L17.9726 10.9749L15.0173 4.52678L15.734 4.17008L15.4658 3.63308L14.7671 3.98108L14.6726 3.77498C14.6035 3.62438 14.4255 3.55827 14.2749 3.62731C14.2095 3.65727 14.1571 3.70966 14.1272 3.77498L14.0429 3.95918C13.5344 3.72301 12.9806 3.60046 12.4199 3.60008H9.89992V3.00009H10.4999V2.40009H9.98422L10.1999 1.537C10.3655 0.874271 9.96255 0.202764 9.29981 0.0371277C8.63708 -0.128471 7.96558 0.274501 7.79994 0.937232C7.75074 1.13411 7.75074 1.34009 7.79994 1.53697L8.01564 2.40006H7.49994V3.00005H8.09994V3.60005H5.58146C5.02024 3.6005 4.46584 3.72335 3.95697 3.96004L3.87267 3.77585C3.80364 3.62525 3.62555 3.55914 3.47495 3.62817C3.40963 3.65813 3.35724 3.71052 3.32728 3.77585L3.23278 3.98194L2.53408 3.63245L2.26589 4.17004L2.98258 4.52824L0.0273038 10.9749C0.00907891 11.0141 -0.000221011 11.0568 3.98718e-06 11.1C0.00131648 12.2592 0.940759 13.1987 2.09999 13.2H5.09996C6.25919 13.1987 7.19863 12.2592 7.19994 11.1C7.19919 11.0569 7.18896 11.0145 7.16994 10.9758L4.20657 4.50338C4.63733 4.30343 5.10656 4.19993 5.58146 4.20008H8.09994V15.1758L7.07575 16.2H5.99995C5.17196 16.201 4.50094 16.872 4.49997 17.7C4.49997 17.8656 4.63429 18 4.79996 18H13.1999C13.3656 18 13.4999 17.8656 13.4999 17.7C13.4989 16.872 12.8279 16.201 11.9999 16.2H10.9241L9.89992 15.1758V4.20008H12.4199C12.8948 4.19993 13.364 4.30343 13.7948 4.50338L10.8272 10.9749C10.809 11.0141 10.7997 11.0568 10.7999 11.1C10.8012 12.2592 11.7407 13.1987 12.8999 13.2H15.8999C17.0591 13.1987 17.9985 12.2592 17.9999 11.1C17.9991 11.0569 17.9889 11.0145 17.9699 10.9758ZM5.09996 12.6H2.09999C1.38742 12.5992 0.773435 12.098 0.629999 11.4H6.56995C6.42655 12.098 5.81253 12.5992 5.09996 12.6ZM6.43255 10.8H0.767398L3.52317 4.78778C3.5735 4.80127 3.62645 4.80127 3.67677 4.78778L6.43255 10.8ZM8.49803 0.844908C8.73166 0.567711 9.14577 0.532423 9.42296 0.766047C9.45143 0.790046 9.47783 0.816446 9.50183 0.844908C9.62317 0.999257 9.66604 1.20116 9.61792 1.3915L9.36563 2.40009H8.63423L8.38193 1.3915C8.33382 1.20116 8.37672 0.999257 8.49803 0.844908ZM8.69993 3.60008V3.00009H9.29993V3.60008H8.69993ZM9.29993 4.20008V15H8.69993V4.20008H9.29993ZM11.9999 16.8C12.3812 16.8004 12.721 17.0406 12.8486 17.4H5.15126C5.27887 17.0406 5.61866 16.8004 5.99995 16.8H11.9999ZM10.0757 16.2H7.92414L8.52413 15.6H9.47573L10.0757 16.2ZM14.3225 4.78867C14.372 4.80611 14.4264 4.80386 14.4743 4.78237L17.2325 10.8H11.5673L14.3225 4.78867ZM15.8999 12.6H12.8999C12.1873 12.5992 11.5733 12.098 11.4299 11.4H17.3699C17.2265 12.098 16.6124 12.5992 15.8999 12.6Z" fill="#B9C599" fill-opacity="0.5"/>
</g>
<defs>
<clipPath id="clip0_167_2742">
<rect width="18" height="18" fill="white"/>
</clipPath>
</defs>
</svg>
