<svg width="42" height="42" viewBox="0 0 42 42" fill="none" xmlns="http://www.w3.org/2000/svg">
<path d="M41.9297 25.6104L41.936 25.6083L35.0403 10.5626L36.7126 9.73033L36.0868 8.47734L34.4565 9.28933L34.236 8.80844C34.0748 8.45704 33.6594 8.30278 33.308 8.46387C33.1556 8.53378 33.0333 8.65601 32.9634 8.80844L32.7667 9.23823C31.5802 8.68716 30.288 8.40122 28.9798 8.40034H23.0998V7.00035H24.4998V5.60036H23.2965L23.7998 3.58648C24.1862 2.04011 23.2459 0.473258 21.6996 0.0867737C20.1532 -0.299623 18.5863 0.640644 18.1999 2.18702C18.0851 2.64639 18.0851 3.12702 18.1999 3.58639L18.7032 5.60028H17.4999V7.00027H18.8999V8.40025H13.0234C11.7139 8.4013 10.4203 8.68795 9.23293 9.24025L9.03623 8.81045C8.87515 8.45905 8.45961 8.30479 8.10822 8.46588C7.95579 8.53579 7.83356 8.65803 7.76364 8.81045L7.54315 9.29135L5.91286 8.47585L5.28707 9.73024L6.95935 10.566L0.0637088 25.6083C0.0211841 25.6997 -0.000515692 25.7994 9.30341e-06 25.9002C0.00307178 28.6051 2.1951 30.7971 4.89997 30.8002H11.8999C14.6048 30.7971 16.7968 28.6051 16.7999 25.9002C16.7981 25.7997 16.7742 25.7007 16.7299 25.6104L9.81533 10.508C10.8204 10.0415 11.9153 9.79998 13.0234 9.80033H18.8999V35.4103L16.5101 37.8001H13.9999C12.0679 37.8024 10.5022 39.3681 10.4999 41.3001C10.4999 41.6866 10.8133 42.0001 11.1999 42.0001H30.7998C31.1863 42.0001 31.4997 41.6866 31.4997 41.3001C31.4975 39.3681 29.9318 37.8024 27.9998 37.8001H25.4896L23.0998 35.4103V9.80033H28.9798C30.0879 9.79998 31.1827 10.0415 32.1878 10.508L25.2635 25.6083C25.221 25.6997 25.1993 25.7994 25.1998 25.9002C25.2029 28.6051 27.3949 30.7971 30.0998 30.8002H37.0997C39.8046 30.7971 41.9966 28.6051 41.9997 25.9002C41.998 25.7997 41.9741 25.7007 41.9297 25.6104ZM11.8999 29.4002H4.89997C3.23731 29.3983 1.80468 28.2288 1.47 26.6002H15.3299C14.9953 28.2288 13.5626 29.3983 11.8999 29.4002ZM15.0093 25.2002H1.79059L8.22074 11.1716C8.33817 11.2031 8.46171 11.2031 8.57914 11.1716L15.0093 25.2002ZM19.8287 1.9716C20.3739 1.3248 21.3401 1.24246 21.9869 1.78758C22.0533 1.84358 22.1149 1.90518 22.1709 1.9716C22.4541 2.33174 22.5541 2.80284 22.4418 3.24698L21.8531 5.60036H20.1465L19.5578 3.24698C19.4456 2.80284 19.5457 2.33174 19.8287 1.9716ZM20.2998 8.40034V7.00035H21.6998V8.40034H20.2998ZM21.6998 9.80033V35.0001H20.2998V9.80033H21.6998ZM27.9998 39.2001C28.8895 39.2011 29.6823 39.7617 29.9801 40.6001H12.0196C12.3174 39.7617 13.1102 39.2011 13.9999 39.2001H27.9998ZM23.51 37.8001H18.4897L19.8896 36.4001H22.11L23.51 37.8001ZM33.4191 11.1737C33.5347 11.2144 33.6615 11.2092 33.7733 11.159L40.2091 25.2002H26.9904L33.4191 11.1737ZM37.0997 29.4002H30.0998C28.4371 29.3983 27.0045 28.2288 26.6698 26.6002H40.5297C40.1951 28.2288 38.7624 29.3983 37.0997 29.4002Z" fill="#282828"/>
</svg>
